<mxfile host="app.diagrams.net" modified="2023-12-02T13:48:55.361Z" agent="Mozilla/5.0 (Windows NT 10.0; Win64; x64) AppleWebKit/537.36 (KHTML, like Gecko) Chrome/119.0.0.0 Safari/537.36" etag="xEJvf1_ceNfEyBRLn8qZ" version="22.1.5" type="github">
  <diagram name="Pagina-1" id="qciENuRhxDM16z5-KsNE">
    <mxGraphModel dx="4602" dy="2967" grid="1" gridSize="10" guides="1" tooltips="1" connect="1" arrows="1" fold="1" page="1" pageScale="1" pageWidth="3300" pageHeight="2339" math="0" shadow="0">
      <root>
        <mxCell id="0" />
        <mxCell id="1" parent="0" />
        <mxCell id="ZxOc-NwCXkHzNGyO08E0-48" value="" style="childLayout=tableLayout;recursiveResize=0;shadow=0;strokeColor=#E6E6E6;align=center;" parent="1" vertex="1">
          <mxGeometry x="-581" y="-90" width="841" height="437" as="geometry" />
        </mxCell>
        <mxCell id="ZxOc-NwCXkHzNGyO08E0-49" value="" style="shape=tableRow;horizontal=0;startSize=0;swimlaneHead=0;swimlaneBody=0;top=0;left=0;bottom=0;right=0;dropTarget=0;collapsible=0;recursiveResize=0;expand=0;fontStyle=0;fillColor=none;strokeColor=inherit;align=center;" parent="ZxOc-NwCXkHzNGyO08E0-48" vertex="1">
          <mxGeometry width="841" height="44" as="geometry" />
        </mxCell>
        <mxCell id="ZxOc-NwCXkHzNGyO08E0-50" value="&lt;span style=&quot;white-space: pre;&quot;&gt;&#x9;&lt;/span&gt;STEP" style="connectable=0;recursiveResize=0;strokeColor=inherit;fillColor=none;align=left;whiteSpace=wrap;html=1;fontStyle=1;labelPosition=center;verticalLabelPosition=middle;verticalAlign=middle;" parent="ZxOc-NwCXkHzNGyO08E0-49" vertex="1">
          <mxGeometry width="480" height="44" as="geometry">
            <mxRectangle width="480" height="44" as="alternateBounds" />
          </mxGeometry>
        </mxCell>
        <mxCell id="ZxOc-NwCXkHzNGyO08E0-51" value="&lt;span style=&quot;white-space: pre;&quot;&gt;&#x9;&lt;/span&gt;COST CALCULATION" style="connectable=0;recursiveResize=0;strokeColor=inherit;fillColor=none;align=center;whiteSpace=wrap;html=1;fontStyle=1" parent="ZxOc-NwCXkHzNGyO08E0-49" vertex="1">
          <mxGeometry x="480" width="200" height="44" as="geometry">
            <mxRectangle width="200" height="44" as="alternateBounds" />
          </mxGeometry>
        </mxCell>
        <mxCell id="ZxOc-NwCXkHzNGyO08E0-52" value="&lt;span style=&quot;white-space: pre;&quot;&gt;&#x9;&lt;/span&gt;STEP COST" style="connectable=0;recursiveResize=0;strokeColor=inherit;fillColor=none;align=center;whiteSpace=wrap;html=1;fontStyle=1" parent="ZxOc-NwCXkHzNGyO08E0-49" vertex="1">
          <mxGeometry x="680" width="161" height="44" as="geometry">
            <mxRectangle width="161" height="44" as="alternateBounds" />
          </mxGeometry>
        </mxCell>
        <mxCell id="ZxOc-NwCXkHzNGyO08E0-53" style="shape=tableRow;horizontal=0;startSize=0;swimlaneHead=0;swimlaneBody=0;top=0;left=0;bottom=0;right=0;dropTarget=0;collapsible=0;recursiveResize=0;expand=0;fontStyle=0;fillColor=none;strokeColor=inherit;align=center;" parent="ZxOc-NwCXkHzNGyO08E0-48" vertex="1">
          <mxGeometry y="44" width="841" height="41" as="geometry" />
        </mxCell>
        <mxCell id="ZxOc-NwCXkHzNGyO08E0-54" value="&lt;span style=&quot;white-space: pre;&quot;&gt;&#x9;&lt;/span&gt;1 USER open check data balancing window&amp;nbsp;" style="connectable=0;recursiveResize=0;strokeColor=inherit;fillColor=none;align=left;whiteSpace=wrap;html=1;labelPosition=center;verticalLabelPosition=middle;verticalAlign=middle;" parent="ZxOc-NwCXkHzNGyO08E0-53" vertex="1">
          <mxGeometry width="480" height="41" as="geometry">
            <mxRectangle width="480" height="41" as="alternateBounds" />
          </mxGeometry>
        </mxCell>
        <mxCell id="ZxOc-NwCXkHzNGyO08E0-55" value="1 x 1 x 1" style="connectable=0;recursiveResize=0;strokeColor=inherit;fillColor=none;align=center;whiteSpace=wrap;html=1;" parent="ZxOc-NwCXkHzNGyO08E0-53" vertex="1">
          <mxGeometry x="480" width="200" height="41" as="geometry">
            <mxRectangle width="200" height="41" as="alternateBounds" />
          </mxGeometry>
        </mxCell>
        <mxCell id="ZxOc-NwCXkHzNGyO08E0-56" value="1" style="connectable=0;recursiveResize=0;strokeColor=inherit;fillColor=none;align=center;whiteSpace=wrap;html=1;" parent="ZxOc-NwCXkHzNGyO08E0-53" vertex="1">
          <mxGeometry x="680" width="161" height="41" as="geometry">
            <mxRectangle width="161" height="41" as="alternateBounds" />
          </mxGeometry>
        </mxCell>
        <mxCell id="ZxOc-NwCXkHzNGyO08E0-72" style="shape=tableRow;horizontal=0;startSize=0;swimlaneHead=0;swimlaneBody=0;top=0;left=0;bottom=0;right=0;dropTarget=0;collapsible=0;recursiveResize=0;expand=0;fontStyle=0;fillColor=none;strokeColor=inherit;align=center;" parent="ZxOc-NwCXkHzNGyO08E0-48" vertex="1">
          <mxGeometry y="85" width="841" height="44" as="geometry" />
        </mxCell>
        <mxCell id="ZxOc-NwCXkHzNGyO08E0-73" value="&lt;span style=&quot;white-space: pre;&quot;&gt;&#x9;&lt;/span&gt;2&amp;nbsp;SYSTEM shows the histogram of attributes with scaled distribution &lt;br&gt;&lt;span style=&quot;white-space: pre;&quot;&gt;&#x9;&lt;/span&gt;&lt;span style=&quot;white-space: pre;&quot;&gt;&#x9;&lt;/span&gt;&lt;span style=&quot;white-space: pre;&quot;&gt;&#x9;&lt;/span&gt;&lt;span style=&quot;white-space: pre;&quot;&gt;&#x9;&lt;/span&gt;and the table with balancing scores" style="connectable=0;recursiveResize=0;strokeColor=inherit;fillColor=none;align=left;whiteSpace=wrap;html=1;labelPosition=center;verticalLabelPosition=middle;verticalAlign=middle;" parent="ZxOc-NwCXkHzNGyO08E0-72" vertex="1">
          <mxGeometry width="480" height="44" as="geometry">
            <mxRectangle width="480" height="44" as="alternateBounds" />
          </mxGeometry>
        </mxCell>
        <mxCell id="ZxOc-NwCXkHzNGyO08E0-74" value="" style="connectable=0;recursiveResize=0;strokeColor=inherit;fillColor=none;align=center;whiteSpace=wrap;html=1;" parent="ZxOc-NwCXkHzNGyO08E0-72" vertex="1">
          <mxGeometry x="480" width="200" height="44" as="geometry">
            <mxRectangle width="200" height="44" as="alternateBounds" />
          </mxGeometry>
        </mxCell>
        <mxCell id="ZxOc-NwCXkHzNGyO08E0-75" value="" style="connectable=0;recursiveResize=0;strokeColor=inherit;fillColor=none;align=center;whiteSpace=wrap;html=1;" parent="ZxOc-NwCXkHzNGyO08E0-72" vertex="1">
          <mxGeometry x="680" width="161" height="44" as="geometry">
            <mxRectangle width="161" height="44" as="alternateBounds" />
          </mxGeometry>
        </mxCell>
        <mxCell id="ZxOc-NwCXkHzNGyO08E0-100" style="shape=tableRow;horizontal=0;startSize=0;swimlaneHead=0;swimlaneBody=0;top=0;left=0;bottom=0;right=0;dropTarget=0;collapsible=0;recursiveResize=0;expand=0;fontStyle=0;fillColor=none;strokeColor=inherit;align=center;" parent="ZxOc-NwCXkHzNGyO08E0-48" vertex="1">
          <mxGeometry y="129" width="841" height="44" as="geometry" />
        </mxCell>
        <mxCell id="ZxOc-NwCXkHzNGyO08E0-101" value="&lt;span style=&quot;white-space: pre;&quot;&gt;&#x9;&lt;/span&gt;3&amp;nbsp;USER checks the report" style="connectable=0;recursiveResize=0;strokeColor=inherit;fillColor=none;align=left;whiteSpace=wrap;html=1;labelPosition=center;verticalLabelPosition=middle;verticalAlign=middle;" parent="ZxOc-NwCXkHzNGyO08E0-100" vertex="1">
          <mxGeometry width="480" height="44" as="geometry">
            <mxRectangle width="480" height="44" as="alternateBounds" />
          </mxGeometry>
        </mxCell>
        <mxCell id="ZxOc-NwCXkHzNGyO08E0-102" value="1 x 2 x 1" style="connectable=0;recursiveResize=0;strokeColor=inherit;fillColor=none;align=center;whiteSpace=wrap;html=1;" parent="ZxOc-NwCXkHzNGyO08E0-100" vertex="1">
          <mxGeometry x="480" width="200" height="44" as="geometry">
            <mxRectangle width="200" height="44" as="alternateBounds" />
          </mxGeometry>
        </mxCell>
        <mxCell id="ZxOc-NwCXkHzNGyO08E0-103" value="2" style="connectable=0;recursiveResize=0;strokeColor=inherit;fillColor=none;align=center;whiteSpace=wrap;html=1;" parent="ZxOc-NwCXkHzNGyO08E0-100" vertex="1">
          <mxGeometry x="680" width="161" height="44" as="geometry">
            <mxRectangle width="161" height="44" as="alternateBounds" />
          </mxGeometry>
        </mxCell>
        <mxCell id="ZxOc-NwCXkHzNGyO08E0-76" style="shape=tableRow;horizontal=0;startSize=0;swimlaneHead=0;swimlaneBody=0;top=0;left=0;bottom=0;right=0;dropTarget=0;collapsible=0;recursiveResize=0;expand=0;fontStyle=0;fillColor=none;strokeColor=inherit;align=center;" parent="ZxOc-NwCXkHzNGyO08E0-48" vertex="1">
          <mxGeometry y="173" width="841" height="44" as="geometry" />
        </mxCell>
        <mxCell id="ZxOc-NwCXkHzNGyO08E0-77" value="&lt;span style=&quot;white-space: pre;&quot;&gt;&#x9;&lt;/span&gt;3.1&amp;nbsp;IF classes are balanced" style="connectable=0;recursiveResize=0;strokeColor=inherit;fillColor=none;align=left;whiteSpace=wrap;html=1;labelPosition=center;verticalLabelPosition=middle;verticalAlign=middle;" parent="ZxOc-NwCXkHzNGyO08E0-76" vertex="1">
          <mxGeometry width="480" height="44" as="geometry">
            <mxRectangle width="480" height="44" as="alternateBounds" />
          </mxGeometry>
        </mxCell>
        <mxCell id="ZxOc-NwCXkHzNGyO08E0-78" value="0.2" style="connectable=0;recursiveResize=0;strokeColor=inherit;fillColor=none;align=center;whiteSpace=wrap;html=1;" parent="ZxOc-NwCXkHzNGyO08E0-76" vertex="1">
          <mxGeometry x="480" width="200" height="44" as="geometry">
            <mxRectangle width="200" height="44" as="alternateBounds" />
          </mxGeometry>
        </mxCell>
        <mxCell id="ZxOc-NwCXkHzNGyO08E0-79" value="" style="connectable=0;recursiveResize=0;strokeColor=inherit;fillColor=none;align=center;whiteSpace=wrap;html=1;" parent="ZxOc-NwCXkHzNGyO08E0-76" vertex="1">
          <mxGeometry x="680" width="161" height="44" as="geometry">
            <mxRectangle width="161" height="44" as="alternateBounds" />
          </mxGeometry>
        </mxCell>
        <mxCell id="ZxOc-NwCXkHzNGyO08E0-104" style="shape=tableRow;horizontal=0;startSize=0;swimlaneHead=0;swimlaneBody=0;top=0;left=0;bottom=0;right=0;dropTarget=0;collapsible=0;recursiveResize=0;expand=0;fontStyle=0;fillColor=none;strokeColor=inherit;align=center;" parent="ZxOc-NwCXkHzNGyO08E0-48" vertex="1">
          <mxGeometry y="217" width="841" height="44" as="geometry" />
        </mxCell>
        <mxCell id="ZxOc-NwCXkHzNGyO08E0-105" value="&lt;span style=&quot;white-space: pre;&quot;&gt;&#x9;&lt;/span&gt;3.1.1 USER selects &quot;ACCEPT BALANCING&quot;" style="connectable=0;recursiveResize=0;strokeColor=inherit;fillColor=none;align=left;whiteSpace=wrap;html=1;labelPosition=center;verticalLabelPosition=middle;verticalAlign=middle;" parent="ZxOc-NwCXkHzNGyO08E0-104" vertex="1">
          <mxGeometry width="480" height="44" as="geometry">
            <mxRectangle width="480" height="44" as="alternateBounds" />
          </mxGeometry>
        </mxCell>
        <mxCell id="ZxOc-NwCXkHzNGyO08E0-106" value="0.2 x 1 x 1" style="connectable=0;recursiveResize=0;strokeColor=inherit;fillColor=none;align=center;whiteSpace=wrap;html=1;" parent="ZxOc-NwCXkHzNGyO08E0-104" vertex="1">
          <mxGeometry x="480" width="200" height="44" as="geometry">
            <mxRectangle width="200" height="44" as="alternateBounds" />
          </mxGeometry>
        </mxCell>
        <mxCell id="ZxOc-NwCXkHzNGyO08E0-107" value="0.2" style="connectable=0;recursiveResize=0;strokeColor=inherit;fillColor=none;align=center;whiteSpace=wrap;html=1;" parent="ZxOc-NwCXkHzNGyO08E0-104" vertex="1">
          <mxGeometry x="680" width="161" height="44" as="geometry">
            <mxRectangle width="161" height="44" as="alternateBounds" />
          </mxGeometry>
        </mxCell>
        <mxCell id="ZxOc-NwCXkHzNGyO08E0-84" style="shape=tableRow;horizontal=0;startSize=0;swimlaneHead=0;swimlaneBody=0;top=0;left=0;bottom=0;right=0;dropTarget=0;collapsible=0;recursiveResize=0;expand=0;fontStyle=0;fillColor=none;strokeColor=inherit;align=center;" parent="ZxOc-NwCXkHzNGyO08E0-48" vertex="1">
          <mxGeometry y="261" width="841" height="44" as="geometry" />
        </mxCell>
        <mxCell id="ZxOc-NwCXkHzNGyO08E0-85" value="&lt;span style=&quot;white-space: pre;&quot;&gt;&#x9;&lt;/span&gt;3.2 ELSE" style="connectable=0;recursiveResize=0;strokeColor=inherit;fillColor=none;align=left;whiteSpace=wrap;html=1;labelPosition=center;verticalLabelPosition=middle;verticalAlign=middle;" parent="ZxOc-NwCXkHzNGyO08E0-84" vertex="1">
          <mxGeometry width="480" height="44" as="geometry">
            <mxRectangle width="480" height="44" as="alternateBounds" />
          </mxGeometry>
        </mxCell>
        <mxCell id="ZxOc-NwCXkHzNGyO08E0-86" value="0.8" style="connectable=0;recursiveResize=0;strokeColor=inherit;fillColor=none;align=center;whiteSpace=wrap;html=1;" parent="ZxOc-NwCXkHzNGyO08E0-84" vertex="1">
          <mxGeometry x="480" width="200" height="44" as="geometry">
            <mxRectangle width="200" height="44" as="alternateBounds" />
          </mxGeometry>
        </mxCell>
        <mxCell id="ZxOc-NwCXkHzNGyO08E0-87" value="" style="connectable=0;recursiveResize=0;strokeColor=inherit;fillColor=none;align=center;whiteSpace=wrap;html=1;" parent="ZxOc-NwCXkHzNGyO08E0-84" vertex="1">
          <mxGeometry x="680" width="161" height="44" as="geometry">
            <mxRectangle width="161" height="44" as="alternateBounds" />
          </mxGeometry>
        </mxCell>
        <mxCell id="ZxOc-NwCXkHzNGyO08E0-88" style="shape=tableRow;horizontal=0;startSize=0;swimlaneHead=0;swimlaneBody=0;top=0;left=0;bottom=0;right=0;dropTarget=0;collapsible=0;recursiveResize=0;expand=0;fontStyle=0;fillColor=none;strokeColor=inherit;align=center;" parent="ZxOc-NwCXkHzNGyO08E0-48" vertex="1">
          <mxGeometry y="305" width="841" height="44" as="geometry" />
        </mxCell>
        <mxCell id="ZxOc-NwCXkHzNGyO08E0-89" value="&#x9;&lt;span style=&quot;white-space: pre;&quot;&gt;&#x9;&lt;/span&gt;3.2.1 USER selects &quot;REFUSE BALANCING&quot;" style="connectable=0;recursiveResize=0;strokeColor=inherit;fillColor=none;align=left;whiteSpace=wrap;html=1;labelPosition=center;verticalLabelPosition=middle;verticalAlign=middle;" parent="ZxOc-NwCXkHzNGyO08E0-88" vertex="1">
          <mxGeometry width="480" height="44" as="geometry">
            <mxRectangle width="480" height="44" as="alternateBounds" />
          </mxGeometry>
        </mxCell>
        <mxCell id="ZxOc-NwCXkHzNGyO08E0-90" value="&lt;span style=&quot;&quot;&gt;&lt;span style=&quot;white-space: pre;&quot;&gt;0.8&lt;/span&gt;&lt;/span&gt;&amp;nbsp;x 1 x 1" style="connectable=0;recursiveResize=0;strokeColor=inherit;fillColor=none;align=center;whiteSpace=wrap;html=1;" parent="ZxOc-NwCXkHzNGyO08E0-88" vertex="1">
          <mxGeometry x="480" width="200" height="44" as="geometry">
            <mxRectangle width="200" height="44" as="alternateBounds" />
          </mxGeometry>
        </mxCell>
        <mxCell id="ZxOc-NwCXkHzNGyO08E0-91" value="0.8" style="connectable=0;recursiveResize=0;strokeColor=inherit;fillColor=none;align=center;whiteSpace=wrap;html=1;" parent="ZxOc-NwCXkHzNGyO08E0-88" vertex="1">
          <mxGeometry x="680" width="161" height="44" as="geometry">
            <mxRectangle width="161" height="44" as="alternateBounds" />
          </mxGeometry>
        </mxCell>
        <mxCell id="ZxOc-NwCXkHzNGyO08E0-92" style="shape=tableRow;horizontal=0;startSize=0;swimlaneHead=0;swimlaneBody=0;top=0;left=0;bottom=0;right=0;dropTarget=0;collapsible=0;recursiveResize=0;expand=0;fontStyle=0;fillColor=none;strokeColor=inherit;align=center;" parent="ZxOc-NwCXkHzNGyO08E0-48" vertex="1">
          <mxGeometry y="349" width="841" height="44" as="geometry" />
        </mxCell>
        <mxCell id="ZxOc-NwCXkHzNGyO08E0-93" value="&lt;span style=&quot;white-space: pre;&quot;&gt;&#x9;&lt;/span&gt;4&amp;nbsp;USER closes check data balancing&amp;nbsp;window&amp;nbsp;" style="connectable=0;recursiveResize=0;strokeColor=inherit;fillColor=none;align=left;whiteSpace=wrap;html=1;labelPosition=center;verticalLabelPosition=middle;verticalAlign=middle;" parent="ZxOc-NwCXkHzNGyO08E0-92" vertex="1">
          <mxGeometry width="480" height="44" as="geometry">
            <mxRectangle width="480" height="44" as="alternateBounds" />
          </mxGeometry>
        </mxCell>
        <mxCell id="ZxOc-NwCXkHzNGyO08E0-94" value="1 x 1 x 1" style="connectable=0;recursiveResize=0;strokeColor=inherit;fillColor=none;align=center;whiteSpace=wrap;html=1;" parent="ZxOc-NwCXkHzNGyO08E0-92" vertex="1">
          <mxGeometry x="480" width="200" height="44" as="geometry">
            <mxRectangle width="200" height="44" as="alternateBounds" />
          </mxGeometry>
        </mxCell>
        <mxCell id="ZxOc-NwCXkHzNGyO08E0-95" value="1" style="connectable=0;recursiveResize=0;strokeColor=inherit;fillColor=none;align=center;whiteSpace=wrap;html=1;" parent="ZxOc-NwCXkHzNGyO08E0-92" vertex="1">
          <mxGeometry x="680" width="161" height="44" as="geometry">
            <mxRectangle width="161" height="44" as="alternateBounds" />
          </mxGeometry>
        </mxCell>
        <mxCell id="ZxOc-NwCXkHzNGyO08E0-96" style="shape=tableRow;horizontal=0;startSize=0;swimlaneHead=0;swimlaneBody=0;top=0;left=0;bottom=0;right=0;dropTarget=0;collapsible=0;recursiveResize=0;expand=0;fontStyle=0;fillColor=none;strokeColor=inherit;align=center;" parent="ZxOc-NwCXkHzNGyO08E0-48" vertex="1">
          <mxGeometry y="393" width="841" height="44" as="geometry" />
        </mxCell>
        <mxCell id="ZxOc-NwCXkHzNGyO08E0-97" style="connectable=0;recursiveResize=0;strokeColor=inherit;fillColor=none;align=left;whiteSpace=wrap;html=1;labelPosition=center;verticalLabelPosition=middle;verticalAlign=middle;" parent="ZxOc-NwCXkHzNGyO08E0-96" vertex="1">
          <mxGeometry width="480" height="44" as="geometry">
            <mxRectangle width="480" height="44" as="alternateBounds" />
          </mxGeometry>
        </mxCell>
        <mxCell id="ZxOc-NwCXkHzNGyO08E0-98" value="&lt;span style=&quot;font-weight: 700;&quot;&gt;HUMAN TASK COST&lt;/span&gt;" style="connectable=0;recursiveResize=0;strokeColor=inherit;fillColor=none;align=center;whiteSpace=wrap;html=1;" parent="ZxOc-NwCXkHzNGyO08E0-96" vertex="1">
          <mxGeometry x="480" width="200" height="44" as="geometry">
            <mxRectangle width="200" height="44" as="alternateBounds" />
          </mxGeometry>
        </mxCell>
        <mxCell id="ZxOc-NwCXkHzNGyO08E0-99" value="5" style="connectable=0;recursiveResize=0;strokeColor=inherit;fillColor=none;align=center;whiteSpace=wrap;html=1;fontStyle=1" parent="ZxOc-NwCXkHzNGyO08E0-96" vertex="1">
          <mxGeometry x="680" width="161" height="44" as="geometry">
            <mxRectangle width="161" height="44" as="alternateBounds" />
          </mxGeometry>
        </mxCell>
      </root>
    </mxGraphModel>
  </diagram>
</mxfile>
